PathFileType	4	(X/Y/Z)	C:/Users/opensim2020/Desktop/walking_exp_matlab/subject03_walking07_straight_04.trc																																																																																																																																								
DataRate	CameraRate	NumFrames	NumMarkers	Units	OrigDataRate	OrigDataStartFrame	OrigNumFrames																																																																																																																																				
100	100	8	46	mm	100	3025	265																																																																																																																																				
Frame#	Time	LFHD			RFHD			LBHD			RBHD			C7			T10			CLAV			STRN			RBAK			LSHO			LUPA			LELB			LFRM			LWRA			LWRB			LFIN			RSHO			RUPA			RELB			RFRM			RWRA			RWRB			RFIN			LASI			RASI			LPSI			RPSI			LTHI			LKNE			LTIB			LANK			LHEE			LTOE			RTHI			RKNE			RTIB			RANK			RHEE			RTOE			*39			*40			*41			*42			*43			*44			*45		
		X1	Y1	Z1	X2	Y2	Z2	X3	Y3	Z3	X4	Y4	Z4	X5	Y5	Z5	X6	Y6	Z6	X7	Y7	Z7	X8	Y8	Z8	X9	Y9	Z9	X10	Y10	Z10	X11	Y11	Z11	X12	Y12	Z12	X13	Y13	Z13	X14	Y14	Z14	X15	Y15	Z15	X16	Y16	Z16	X17	Y17	Z17	X18	Y18	Z18	X19	Y19	Z19	X20	Y20	Z20	X21	Y21	Z21	X22	Y22	Z22	X23	Y23	Z23	X24	Y24	Z24	X25	Y25	Z25	X26	Y26	Z26	X27	Y27	Z27	X28	Y28	Z28	X29	Y29	Z29	X30	Y30	Z30	X31	Y31	Z31	X32	Y32	Z32	X33	Y33	Z33	X34	Y34	Z34	X35	Y35	Z35	X36	Y36	Z36	X37	Y37	Z37	X38	Y38	Z38	X39	Y39	Z39	X40	Y40	Z40	X41	Y41	Z41	X42	Y42	Z42	X43	Y43	Z43	X44	Y44	Z44	X45	Y45	Z45	X46	Y46	Z46
																																																																																																																																											
67	0.66	-424.02365	1588.38257	931.99463	-436.22351	1595.22705	1064.26465	-556.10229	1558.30859	924.80847	-563.01886	1564.05908	1055.62512	-605.30365	1400.38391	982.12787	-655.41254	1087.23877	984.00507	-490.18149	1315.33337	990.47101	-455.36206	1149.12305	981.63525	-672.84607	1223.95227	1072.05994	-518.58374	1356.42822	834.72601	-485.26901	1171.11829	755.69775	-440.24228	1057.65857	742.75061	-357.27563	961.97711	758.83624	-284.92969	876.58533	806.31952	-298.35931	864.50739	753.50751	-237.53078	811.92853	773.16132	-543.54962	1339.17444	1147.71289	-576.82361	1117.62415	1215.45459	-579.68365	1004.66302	1228.29968	-584.14679	867.51837	1229.30249	-564.25555	769.51776	1196.0354	-600.85303	768.11841	1236.22717	-586.04968	694.98639	1226.05188	-495.93378	921.9104	859.46881	-480.94205	921.05444	1098.92554	-654.30005	943.40106	922.49194	-645.04993	945.37366	1070.18726	-596.62579	628.73566	826.19482	-633.03107	452.49265	860.11847	-743.68829	285.64923	857.87054	-833.02911	93.14435	897.29449	-882.31348	69.30071	932.60986	-694.19403	28.90572	922.54919	-474.99268	630.44934	1149.78442	-399.8013	466.27856	1113.58643	-383.11633	281.03607	1122.92383	-328.92566	68.62344	1084.44678	-360.18433	28.00138	1029.74133	-183.02554	59.37462	1068.91443	-506.19388	1661.70471	974.37762	NaN	NaN	NaN	NaN	NaN	NaN	NaN	NaN	NaN	NaN	NaN	NaN	NaN	NaN	NaN	NaN	NaN	NaN
68	0.67	-413.77948	1588.21765	933.36829	-425.84158	1595.005	1065.6615	-545.79053	1558.19238	926.24512	-552.68445	1563.89453	1057.07092	-595.1673	1400.17859	983.58478	-644.40948	1086.75452	985.23547	-479.77798	1315.25391	991.67438	-444.58923	1149.15076	982.73962	-662.21362	1223.56384	1073.5459	-508.66992	1356.46057	835.98639	-476.5473	1170.88452	756.98669	-431.78488	1057.21729	743.9986	-348.77963	961.76453	760.04755	-276.00244	876.91956	807.53522	-289.55765	864.51813	755.02399	-228.53444	812.29608	774.7735	-533.04865	1338.9458	1149.0105	-566.12469	1117.39331	1216.58301	-568.91583	1004.39624	1229.31702	-573.48895	867.2406	1230.23975	-554.09955	769.00421	1196.62122	-590.26385	767.84021	1237.18689	-575.54926	694.62738	1227.00769	-484.84406	921.40674	860.73096	-469.37546	921.35291	1100.1814	-643.21442	943.08789	923.96899	-633.65454	945.41919	1071.63403	-586.66699	628.66394	826.88593	-623.74835	452.4343	859.98859	-737.71289	287.34409	857.79785	-830.79694	96.74724	896.95154	-880.38171	74.06902	932.45471	-693.7171	28.7581	922.43713	-463.04251	630.73694	1149.74329	-390.47455	465.45853	1113.34058	-377.23688	279.33829	1121.91284	-326.35651	66.92584	1083.11365	-359.26846	28.27701	1028.23645	-180.81207	50.86598	1066.67554	NaN	NaN	NaN	NaN	NaN	NaN	NaN	NaN	NaN	NaN	NaN	NaN	NaN	NaN	NaN	NaN	NaN	NaN	NaN	NaN	NaN
69	0.68	-403.24435	1588.50867	934.7403	-415.28271	1595.14783	1067.12476	-535.44489	1558.37231	927.74353	-542.20258	1564.01648	1058.62561	-585.12476	1400.30652	985.16449	-633.22046	1086.5531	986.66565	-469.3577	1315.48779	993.00159	-433.73792	1149.66748	983.97015	-651.50317	1223.32336	1074.93481	-498.69968	1356.67371	837.24036	-467.66382	1170.70422	758.24524	-423.64517	1056.86523	745.27856	-340.6268	961.58118	761.3501	-267.54752	877.04315	808.8927	-281.42682	864.27753	756.479	-220.1089	812.29749	776.23535	-522.5249	1339.09802	1150.52808	-555.23157	1117.33093	1217.83813	-557.94708	1004.27142	1230.44788	-562.53912	867.13666	1231.28833	-543.40442	768.72217	1197.48254	-579.35059	767.68109	1238.15515	-564.76672	694.48511	1227.88721	-473.53067	921.14288	861.68842	-457.75421	921.85638	1101.42725	-631.98364	942.8808	925.61768	-621.99823	945.73029	1073.28723	-576.15295	628.54694	827.61273	-613.90063	452.4613	859.9588	-731.16284	289.22601	857.70471	-828.13605	100.74508	896.48901	-878.85046	80.08701	931.8631	-693.30231	28.78826	922.48492	-451.71103	631.69562	1149.86316	-382.24704	465.10202	1113.14502	-371.29236	278.77429	1120.92664	-321.54071	66.82925	1083.43433	-356.99142	30.35207	1028.89331	-176.50529	43.14824	1064.35205	-481.03601	1663.00818	975.86475	NaN	NaN	NaN	NaN	NaN	NaN	NaN	NaN	NaN	NaN	NaN	NaN	NaN	NaN	NaN	NaN	NaN	NaN
70	0.69	-392.70352	1589.11389	936.12958	-404.62372	1595.79895	1068.50842	-524.8786	1559.13831	929.27991	-531.5293	1564.71753	1060.15063	-574.87317	1400.76294	986.84137	-621.94739	1086.83228	988.02411	-459.0195	1316.27454	994.35358	-422.90472	1150.60144	985.15619	-640.79517	1223.4679	1076.30872	-488.86371	1357.36206	838.5484	-458.98965	1170.67737	759.64868	-415.87854	1056.62756	746.53833	-332.76712	961.35474	762.56433	-259.55948	876.8938	810.17767	-273.89227	863.92603	757.93799	-212.39743	811.99182	777.66528	-511.92221	1339.28308	1151.98938	-544.07336	1117.40356	1219.13342	-546.68286	1004.33502	1231.7334	-551.22314	867.19385	1232.44836	-532.59607	768.55017	1198.18152	-568.00183	767.75549	1239.24524	-553.49597	694.53571	1228.85083	-462.19327	921.10614	862.7948	-446.00021	922.59747	1102.66943	-620.54285	942.9187	927.22394	-609.92291	946.35706	1074.97449	-565.04315	628.60669	828.35114	-603.20795	452.43576	859.87	-723.8125	291.36514	857.6366	-824.95276	105.38159	896.24377	-875.45306	85.6466	931.70313	-692.81421	28.83948	922.57471	-440.88901	632.97833	1150.09412	-374.78171	465.27014	1113.55811	-364.1373	279.24786	1121.73462	-316.32462	66.77396	1083.73669	-354.54559	32.03012	1030.40735	-172.01811	39.70242	1062.58923	-471.29126	1664.55237	976.89478	NaN	NaN	NaN	NaN	NaN	NaN	NaN	NaN	NaN	NaN	NaN	NaN	NaN	NaN	NaN	NaN	NaN	NaN
71	0.7	-382.07907	1590.005	937.58545	-393.79019	1596.61182	1069.9873	-514.27209	1560.34338	930.83734	-520.79187	1565.92529	1061.67981	-564.43719	1401.7019	988.55286	-610.72876	1087.4314	989.07184	-448.53876	1317.37158	995.75958	-411.98373	1151.78223	986.43683	-630.04218	1223.93506	1077.8175	-478.79556	1358.30713	839.78845	-450.40607	1170.96326	761.04065	-407.97549	1056.56714	747.90558	-325.28778	960.95355	763.88824	-252.08803	876.60797	811.43671	-266.64908	863.43958	759.34021	-205.34761	811.43805	778.91925	-501.26263	1339.94653	1153.58032	-532.6781	1117.80859	1220.48462	-535.01996	1004.66644	1233.06287	-539.46301	867.54297	1233.6283	-520.9696	768.81647	1199.27356	-556.18372	768.08539	1240.46179	-541.77472	694.89221	1229.9928	-450.63205	921.42072	863.89203	-434.14667	923.77325	1103.91064	-608.95203	943.22839	928.78821	-597.93195	947.66547	1076.58533	-553.19714	628.7251	829.08716	-591.51343	452.50046	859.58185	-715.79071	293.69	857.57532	-821.37488	110.34506	896.05981	-872.32794	92.54691	931.63715	-692.42188	28.7192	922.61578	-430.8898	634.21979	1150.72937	-367.17401	465.43518	1114.41589	-356.58469	279.63748	1123.13562	-312.1987	66.54301	1083.63855	-352.5094	33.54285	1030.9198	-168.43303	36.92013	1063.83777	-463.22342	1663.87488	980.44824	NaN	NaN	NaN	NaN	NaN	NaN	NaN	NaN	NaN	NaN	NaN	NaN	NaN	NaN	NaN	NaN	NaN	NaN
72	0.71	-371.35956	1590.97729	939.11169	-382.95395	1597.67554	1071.43433	-503.66281	1561.74011	932.45709	-510.00339	1567.31885	1063.31299	-553.81036	1402.9353	990.26556	-599.44287	1088.31604	990.10956	-438.00095	1318.64856	997.2276	-400.92188	1153.28931	987.73932	-619.2312	1224.74036	1079.43848	-468.67847	1359.5282	841.07007	-441.84467	1171.58069	762.50299	-401.14911	1056.9397	749.08905	-318.20428	960.65643	765.13184	-245.20233	876.14093	812.58759	-260.41394	862.80115	760.62549	-199.05246	810.62109	780.00793	-490.60718	1340.99927	1155.13525	-521.16278	1118.61108	1222.06592	-523.03412	1005.35162	1234.34692	-527.3576	868.23083	1234.82935	-508.84732	769.5365	1200.40784	-543.96283	768.72968	1241.67346	-529.72986	695.48889	1230.90527	-439.04068	921.88361	865.13617	-422.32098	925.40906	1105.14478	-597.30341	943.76385	930.22833	-586.18396	949.4964	1078.00562	-540.77826	628.89697	829.65167	-578.96283	452.47595	859.17981	-707.13354	296.27972	857.50269	-817.08716	115.92905	895.94489	-868.14905	99.96281	931.7558	-692.18604	28.38181	922.64673	-421.68848	635.73669	1151.63354	-359.12006	466.15308	1115.02698	-349.67987	280.01279	1123.75574	-310.17844	66.4957	1082.73633	-351.50555	34.0722	1030.76978	-166.5636	34.88621	1064.93372	-451.41708	1665.24939	981.94086	NaN	NaN	NaN	NaN	NaN	NaN	NaN	NaN	NaN	NaN	NaN	NaN	NaN	NaN	NaN	NaN	NaN	NaN
73	0.72	-360.69916	1592.20349	940.56836	-372.03433	1598.82861	1072.92871	-492.99472	1563.2594	934.11505	-499.21136	1568.82007	1064.97205	-543.27649	1404.3988	991.97534	-588.3446	1089.48328	991.37158	-427.44507	1320.18201	998.58899	-389.84402	1155.01672	988.98853	-608.3584	1225.77026	1081.12427	-458.53253	1361.05566	842.45789	-433.28333	1172.55444	764.09283	-392.77576	1057.29053	750.9491	-311.49707	960.52301	766.45258	-238.85533	875.51208	813.70148	-254.8773	862.10394	761.87006	-193.45984	809.63586	780.9599	-479.784	1342.27661	1156.61145	-509.23517	1119.69312	1223.40906	-510.70834	1006.36652	1235.58875	-514.80969	869.29468	1236.06128	-496.69275	770.30188	1201.64612	-531.24811	769.69165	1242.99902	-517.13013	696.4422	1232.08594	-427.30109	922.6734	866.48822	-410.56555	927.62189	1106.35315	-585.60211	944.55957	931.43164	-574.67316	951.70355	1079.22766	-527.74707	629.06274	830.15906	-565.27374	452.42145	858.59369	-697.46423	299.00748	857.34869	-811.84747	122.00487	895.96112	-863.1767	108.34884	932.08289	-691.59875	28.29155	922.77728	-412.73129	637.43652	1152.82837	-350.42688	467.34305	1115.49719	-343.42145	280.58176	1124.38342	-309.09427	66.56255	1081.98633	-351.379	34.12172	1030.55701	-165.90646	33.92894	1063.35059	-438.58539	1666.79712	983.31921	NaN	NaN	NaN	NaN	NaN	NaN	NaN	NaN	NaN	NaN	NaN	NaN	NaN	NaN	NaN	NaN	NaN	NaN
74	0.73	-350.01288	1593.60852	942.05609	-361.15631	1600.11206	1074.42957	-482.33142	1564.93274	935.76642	-488.31009	1570.39136	1066.60828	-532.81207	1405.94702	993.57465	-577.35876	1090.76355	992.66711	-416.92755	1321.88184	999.92841	-378.84344	1156.84851	990.20343	-597.51697	1227.01367	1082.85938	-448.30481	1362.86169	843.87042	-424.78732	1173.8252	765.7511	-386.49518	1058.2334	752.38885	-305.05594	960.44299	767.83392	-233.04509	874.76068	814.68408	-249.60367	861.3819	763.04431	-188.58093	808.41498	781.73914	-468.92786	1343.82861	1158.10669	-497.04099	1120.94702	1224.53247	-498.06726	1007.67871	1236.79321	-501.87048	870.61688	1237.38953	-483.78653	771.60675	1202.79138	-518.09039	770.95892	1244.38867	-504.10284	697.62573	1233.26245	-415.56854	923.6402	868.10736	-398.98514	930.12396	1107.72229	-573.8717	945.62122	932.47882	-563.29559	954.23602	1080.25757	-514.10724	629.19653	830.58728	-550.39752	452.33459	857.64557	-686.64954	301.91476	857.10724	-805.53583	128.47942	896.40656	-856.62427	117.22618	932.98694	-690.85449	28.22286	923.02277	-403.48267	639.49683	1153.97107	-341.80444	468.84311	1115.79211	-337.96307	281.40799	1124.87158	-308.61487	66.92719	1081.66943	-351.36154	34.16242	1030.68762	-165.46799	33.6055	1061.79419	-427.74933	1668.19885	985.01508	NaN	NaN	NaN	NaN	NaN	NaN	NaN	NaN	NaN	NaN	NaN	NaN	NaN	NaN	NaN	NaN	NaN	NaN
